<?xml version="1.0" encoding="UTF-8"?>
<!-- Generator: visioncortex VTracer 0.6.2 -->
<svg version="1.1" xmlns="http://www.w3.org/2000/svg" width="1280" height="1280">
<path d="M0 0 C300.96 0 601.92 0 912 0 C912.33 0.99 912.66 1.98 913 3 C914.95292969 3.25523437 914.95292969 3.25523437 916.9453125 3.515625 C918.67198891 3.75961188 920.39854539 4.00444854 922.125 4.25 C923.40890625 4.41435547 923.40890625 4.41435547 924.71875 4.58203125 C930.18522598 5.38097774 933.43339551 6.75547541 938 10 C941.27905015 10.91325286 944.53025298 11.49422668 947.87890625 12.09375 C951.39873479 13.11577781 953.18780707 14.70360003 956 17 C958.80935577 17.91284389 961.58685691 18.49205788 964.4765625 19.09375 C967.49926547 20.17930277 968.17397725 21.44356814 970 24 C971.8573162 24.75351609 971.8573162 24.75351609 973.875 25 C977.84982936 25.82387372 979.88315998 27.35068598 983 30 C985.04982369 31.06272413 987.12156536 32.03312568 989.23046875 32.97265625 C991 34 991 34 993 37 C993.70125 37.268125 994.4025 37.53625 995.125 37.8125 C999.27271672 39.52568734 1002.49088131 42.24081393 1006 45 C1006.99 45.7425 1007.98 46.485 1009 47.25 C1009.66 47.8275 1010.32 48.405 1011 49 C1011 49.66 1011 50.32 1011 51 C1011.763125 51.2475 1012.52625 51.495 1013.3125 51.75 C1016.32130998 53.1494465 1017.08793399 54.37090924 1019 57 C1019.86625 57.495 1020.7325 57.99 1021.625 58.5 C1024 60 1024 60 1024.5 62.0625 C1024.7475 63.0215625 1024.7475 63.0215625 1025 64 C1025.804375 64.309375 1026.60875 64.61875 1027.4375 64.9375 C1030 66 1030 66 1031.0625 68.5625 C1031.371875 69.366875 1031.68125 70.17125 1032 71 C1033.33076989 71.34342449 1034.66431979 71.67619874 1036 72 C1037.02611949 73.65071396 1038.02308143 75.31970006 1039 77 C1040.66270287 78.33827304 1042.32916181 79.67189785 1044 81 C1044.6837045 82.32467746 1045.34964186 83.65863633 1046 85 C1047.0828125 86.0828125 1047.0828125 86.0828125 1048.1875 87.1875 C1053.24557566 92.24557566 1057.39289172 97.31998437 1060 104 C1060.61875 104.598125 1061.2375 105.19625 1061.875 105.8125 C1064.35974972 108.37033059 1065.55476546 110.92304743 1067.0625 114.12109375 C1067.98121124 116.10692976 1067.98121124 116.10692976 1069.5625 118.0625 C1071.59460609 120.8014256 1072.65998784 123.87330496 1074 127 C1074.99387334 128.33790641 1075.9926892 129.67218122 1077 131 C1077.5625 132.875 1077.5625 132.875 1078 135 C1078.96056303 138.39891533 1079.81293383 140.76032147 1082 143.5625 C1084.99582621 148.71157629 1085.33974058 154.14454146 1086 160 C1086.66 160 1087.32 160 1088 160 C1090.31419265 165.30335815 1091.18349688 169.1281903 1090.984375 174.8828125 C1091.00670478 177.90849832 1091.70846084 180.28097019 1093 183 C1093.99 183.33 1094.98 183.66 1096 184 C1096 484.96 1096 785.92 1096 1096 C1095.01 1096.33 1094.02 1096.66 1093 1097 C1091.23464902 1101.55274726 1090.9655313 1105.02273511 1091.12890625 1109.93359375 C1090.90044682 1113.59586765 1089.43564291 1116.65016655 1088 1120 C1087.34 1120 1086.68 1120 1086 1120 C1085.89042969 1120.88042969 1085.78085938 1121.76085938 1085.66796875 1122.66796875 C1085.50941406 1123.82941406 1085.35085938 1124.99085937 1085.1875 1126.1875 C1085.03667969 1127.33605469 1084.88585938 1128.48460937 1084.73046875 1129.66796875 C1083.98407563 1133.07263896 1083.09007572 1135.22663029 1081 1138 C1077.8125 1139.3125 1077.8125 1139.3125 1075 1140 C1075 1142.31 1075 1144.62 1075 1147 C1075.66 1147 1076.32 1147 1077 1147 C1075.25 1151.875 1075.25 1151.875 1073 1153 C1072.01 1152.67 1071.02 1152.34 1070 1152 C1070.33 1152.66 1070.66 1153.32 1071 1154 C1071.77014187 1158.51083098 1070.66985213 1160.85634948 1068.1875 1164.5 C1067.63835937 1165.26441406 1067.08921875 1166.02882813 1066.5234375 1166.81640625 C1064.83036689 1169.125087 1064.83036689 1169.125087 1063.3125 1172.4375 C1062 1175 1062 1175 1059 1177 C1058.5978125 1178.051875 1058.5978125 1178.051875 1058.1875 1179.125 C1055.64354103 1185.28405856 1050.95193679 1190.5982784 1046 1195 C1045.34 1195 1044.68 1195 1044 1195 C1043.9175 1195.763125 1043.835 1196.52625 1043.75 1197.3125 C1042.82731999 1200.61877005 1041.73957596 1201.06618167 1039 1203 C1038.505 1203.86625 1038.01 1204.7325 1037.5 1205.625 C1036 1208 1036 1208 1033.9375 1208.5 C1032.9784375 1208.7475 1032.9784375 1208.7475 1032 1209 C1031.690625 1209.804375 1031.38125 1210.60875 1031.0625 1211.4375 C1030 1214 1030 1214 1027.4375 1215.0625 C1026.633125 1215.371875 1025.82875 1215.68125 1025 1216 C1024.65657551 1217.33076989 1024.32380126 1218.66431979 1024 1220 C1022.34928604 1221.02611949 1020.68029994 1222.02308143 1019 1223 C1017.65705519 1224.65893182 1016.32255312 1226.32476605 1015 1228 C1014.01 1228.33 1013.02 1228.66 1012 1229 C1011.1028125 1230.1446875 1011.1028125 1230.1446875 1010.1875 1231.3125 C1007.74327421 1234.31540598 1005.25979572 1235.93768026 1002 1238 C1001.154375 1238.70125 1000.30875 1239.4025 999.4375 1240.125 C997 1242 997 1242 994.4375 1243 C991.9030767 1243.84925542 991.9030767 1243.84925542 990.1875 1245.875 C987.6318183 1248.35766222 985.08705669 1249.55413522 981.88671875 1251.05078125 C979.85778765 1251.98994006 979.85778765 1251.98994006 977.8125 1253.75 C976 1255 976 1255 973.5 1254.875 C972.2625 1254.936875 972.2625 1254.936875 971 1255 C970.360625 1255.804375 969.72125 1256.60875 969.0625 1257.4375 C967 1260 967 1260 964 1260.8125 C961.67037538 1260.95810154 959.33417024 1261 957 1261 C956.1646875 1262.1446875 956.1646875 1262.1446875 955.3125 1263.3125 C952.08975999 1267.05784649 948.66971306 1267.75948401 944 1269 C939.45800068 1270.21119982 935.98060199 1271.52557174 932 1274 C929.10977214 1274.91714955 926.6419092 1275.05923493 923.625 1274.9375 C919.70993634 1274.89873699 916.59439083 1275.29266436 913 1277 C912.67 1277.99 912.34 1278.98 912 1280 C611.04 1280 310.08 1280 0 1280 C-0.33 1279.01 -0.66 1278.02 -1 1277 C-3.01508358 1276.26676204 -3.01508358 1276.26676204 -5 1276 C-5 1275.34 -5 1274.68 -5 1274 C-5.99 1274.33 -6.98 1274.66 -8 1275 C-14.20765389 1275.42085789 -18.31806963 1274.54707223 -24 1272 C-24.66 1271.34 -25.32 1270.68 -26 1270 C-28.06878955 1269.47994517 -30.15591377 1269.0313866 -32.25 1268.625 C-37.3890672 1267.50385245 -41.05343069 1266.49553282 -45 1263 C-45 1262.34 -45 1261.68 -45 1261 C-47.88467556 1259.72313807 -47.88467556 1259.72313807 -50.375 1260.6875 C-53 1261 -53 1261 -55.75 1259.1875 C-58 1257 -58 1257 -59 1255 C-60.0725 1254.87625 -61.145 1254.7525 -62.25 1254.625 C-66.51199949 1253.91466675 -67.77344207 1252.75437872 -71 1250 C-73.04930912 1248.93563015 -75.12131507 1247.96698583 -77.23046875 1247.02734375 C-79 1246 -79 1246 -81 1243 C-82.051875 1242.5978125 -82.051875 1242.5978125 -83.125 1242.1875 C-87.2713173 1240.47489068 -90.49437269 1237.7620094 -94 1235 C-94.969375 1234.2575 -95.93875 1233.515 -96.9375 1232.75 C-99 1231 -99 1231 -100 1229 C-100.804375 1228.525625 -101.60875 1228.05125 -102.4375 1227.5625 C-105 1226 -105 1226 -107 1223 C-108.2684375 1222.2884375 -108.2684375 1222.2884375 -109.5625 1221.5625 C-112 1220 -112 1220 -112.5 1217.9375 C-112.665 1217.298125 -112.83 1216.65875 -113 1216 C-113.804375 1215.690625 -114.60875 1215.38125 -115.4375 1215.0625 C-118 1214 -118 1214 -119.0625 1211.4375 C-119.371875 1210.633125 -119.68125 1209.82875 -120 1209 C-121.33076989 1208.65657551 -122.66431979 1208.32380126 -124 1208 C-125.02611949 1206.34928604 -126.02308143 1204.68029994 -127 1203 C-128.66270287 1201.66172696 -130.32916181 1200.32810215 -132 1199 C-132.6837045 1197.67532254 -133.34964186 1196.34136367 -134 1195 C-135.0828125 1193.9171875 -135.0828125 1193.9171875 -136.1875 1192.8125 C-141.24557566 1187.75442434 -145.39289172 1182.68001563 -148 1176 C-148.61875 1175.401875 -149.2375 1174.80375 -149.875 1174.1875 C-152.3597094 1171.62971092 -153.55561809 1169.07936031 -155.05859375 1165.87890625 C-155.97927101 1163.88386571 -155.97927101 1163.88386571 -157.625 1161.9375 C-159 1160 -159 1160 -159.9375 1156.5 C-160.68325934 1152.99334577 -160.68325934 1152.99334577 -162.9375 1151.1875 C-165.71422577 1148.24248782 -166.19060222 1145.28989108 -167.21484375 1141.43359375 C-167.92645058 1138.79047445 -167.92645058 1138.79047445 -170.0625 1136.1875 C-173.09403929 1131.2001289 -173.3539127 1125.72977424 -174 1120 C-174.66 1120 -175.32 1120 -176 1120 C-179.32817106 1112.58725536 -180.11554692 1104.99129371 -181 1097 C-181.99 1096.67 -182.98 1096.34 -184 1096 C-184 795.04 -184 494.08 -184 184 C-183.01 183.67 -182.02 183.34 -181 183 C-180.87939209 182.16807129 -180.87939209 182.16807129 -180.75634766 181.31933594 C-180.38632023 178.79512602 -180.00577141 176.27261061 -179.625 173.75 C-179.49867188 172.87730469 -179.37234375 172.00460938 -179.2421875 171.10546875 C-179.11328125 170.26113281 -178.984375 169.41679687 -178.8515625 168.546875 C-178.73635254 167.77182617 -178.62114258 166.99677734 -178.50244141 166.19824219 C-177.97506716 163.89091581 -177.13993019 162.06586626 -176 160 C-175.34 160 -174.68 160 -174 160 C-173.89042969 159.13117188 -173.78085938 158.26234375 -173.66796875 157.3671875 C-171.80155642 143.80155642 -171.80155642 143.80155642 -167 139 C-166.44184214 137.37296983 -165.94866855 135.72306132 -165.5 134.0625 C-164.61778163 130.80692244 -163.90242149 128.85363224 -162 126 C-161.34 126 -160.68 126 -160 126 C-159.95875 125.195625 -159.9175 124.39125 -159.875 123.5625 C-158.83915743 119.34514097 -156.96908097 116.69460624 -154.48828125 113.18359375 C-152.83463384 110.86797368 -152.83463384 110.86797368 -151.3125 107.5625 C-150 105 -150 105 -147 103 C-146.731875 102.29875 -146.46375 101.5975 -146.1875 100.875 C-144.76836646 97.43920301 -142.78038936 94.90673036 -140.51171875 91.984375 C-139.24180187 90.317404 -138.07592984 88.57189157 -136.9375 86.8125 C-134.14439201 82.7579884 -131.09091378 79.72727585 -127 77 C-126.525625 76.154375 -126.05125 75.30875 -125.5625 74.4375 C-124 72 -124 72 -121.9375 71.5 C-121.298125 71.335 -120.65875 71.17 -120 71 C-119.690625 70.195625 -119.38125 69.39125 -119.0625 68.5625 C-118 66 -118 66 -115.4375 64.9375 C-114.633125 64.628125 -113.82875 64.31875 -113 64 C-112.65657551 62.66923011 -112.32380126 61.33568021 -112 60 C-110.34928604 58.97388051 -108.68029994 57.97691857 -107 57 C-106.13375 55.88625 -106.13375 55.88625 -105.25 54.75 C-102.62955187 51.54723006 -99.73529896 49.31975967 -96.44140625 46.83984375 C-93.28252698 44.45931233 -90.21518689 41.96858642 -87.140625 39.48046875 C-84.8484301 37.89517337 -82.5864901 37.01135636 -80 36 C-79.401875 35.38125 -78.80375 34.7625 -78.1875 34.125 C-75.66174633 31.67141072 -73.18722419 30.49847392 -70.02734375 29.015625 C-68.11089281 28.05555324 -66.43394671 26.98688495 -64.6875 25.75 C-62 24 -62 24 -59 24 C-58.67 23.34 -58.34 22.68 -58 22 C-53.42577266 18.95051511 -50.64033805 17.44972312 -45 18 C-44.67 17.01 -44.34 16.02 -44 15 C-43.34 15 -42.68 15 -42 15 C-41.360625 14.54625 -40.72125 14.0925 -40.0625 13.625 C-36.33514953 11.6472222 -32.97342517 11.23710952 -28.81640625 10.72265625 C-25.85155501 10.14315628 -25.85155501 10.14315628 -23.26953125 8.04296875 C-18.97455787 5.35925181 -15.08423394 4.88484169 -10.125 4.25 C-9.24585938 4.12496094 -8.36671875 3.99992188 -7.4609375 3.87109375 C-5.30918146 3.56704127 -3.15480697 3.28161834 -1 3 C-0.67 2.01 -0.34 1.02 0 0 Z M1075 134 C1076 136 1076 136 1076 136 Z " fill="#FAFCFC" transform="translate(184,0)"/>
<path d="M0 0 C20.12944858 0.59065283 40.81251638 8.60468865 55.828125 22.03515625 C56.55128906 22.67710937 57.27445313 23.3190625 58.01953125 23.98046875 C69.80586117 35.09036582 77.84473589 49.44327752 85.453125 63.5703125 C86.87824143 66.20134827 86.87824143 66.20134827 88.953125 69.22265625 C90.73328183 71.8928915 92.09939569 74.61366508 93.49609375 77.49609375 C95.98409353 82.23861533 98.82898212 86.77643773 101.609375 91.3515625 C104.83906526 96.68209876 107.88502663 102.10333946 110.828125 107.59765625 C112.40721934 110.50713758 113.99056467 113.27881575 115.828125 116.03515625 C117.63932802 118.75196077 119.16690495 121.47022855 120.703125 124.34765625 C122.64382419 127.96865702 124.68522415 131.4023163 127.015625 134.78515625 C128.80910356 137.39385234 130.28071333 139.84462103 131.453125 142.78515625 C132.6686202 146.06731076 132.6686202 146.06731076 134.828125 148.53515625 C136.75968465 150.94960581 137.78392014 153.17236581 138.921875 156.0234375 C140.42013297 159.34931186 142.38235703 162.38792071 144.2890625 165.4921875 C145.704067 167.83017717 147.02798193 170.19448857 148.328125 172.59765625 C150.0488514 175.74492034 151.92220804 178.70382146 153.953125 181.66015625 C155.74460096 184.287959 157.2607181 186.77404137 158.453125 189.72265625 C159.88961405 193.18328896 161.72414165 195.94493071 163.828125 199.03515625 C164.828125 201.03515625 165.828125 203.03515625 166.828125 205.03515625 C168.29008671 207.52134114 169.78660467 209.98493393 171.28515625 212.44921875 C172.71497048 214.845515 174.06311628 217.2686496 175.390625 219.72265625 C176.92131606 222.52318106 178.54502483 225.10273244 180.453125 227.66015625 C182.43943362 230.34751497 183.73079221 233.01057427 184.9765625 236.125 C186.36207101 239.23286083 188.1778913 242.06286849 189.953125 244.9609375 C192.30497938 248.81699874 194.60055736 252.70466804 196.890625 256.59765625 C197.32656982 257.33854492 197.76251465 258.07943359 198.21166992 258.84277344 C200.80337392 263.25867054 203.35079828 267.69358851 205.8125 272.18359375 C207.9112096 276.0097028 210.08288059 279.79308224 212.328125 283.53515625 C213.80515363 285.99687063 215.22864571 288.48587363 216.65087891 290.97949219 C217.90936426 293.17701328 219.17799464 295.36841801 220.44921875 297.55859375 C220.91005859 298.35265625 221.37089844 299.14671875 221.84570312 299.96484375 C222.78794018 301.58751333 223.73064419 303.20991186 224.67382812 304.83203125 C227.78750249 310.19953686 230.83199782 315.60122823 233.828125 321.03515625 C236.0050395 324.97565987 238.2896609 328.75084799 240.828125 332.47265625 C243.11962652 335.8640785 245.0102592 339.26257322 246.7734375 342.94921875 C248.41829922 346.20238971 250.35220669 349.27254013 252.25 352.3828125 C253.89444004 355.14661148 255.43101312 357.95233692 256.953125 360.78515625 C259.05670019 364.69022664 261.3470287 368.35628932 263.828125 372.03515625 C264.84503764 374.02661016 265.84455148 376.02702699 266.828125 378.03515625 C267.79651162 379.74262864 268.76586574 381.4495775 269.74462891 383.15112305 C270.7677053 384.93009568 271.78066135 386.71487741 272.79296875 388.5 C276.02797143 394.1948859 279.2877769 399.84902756 282.8125 405.37109375 C284.31901103 407.83945413 285.53547356 410.44985338 286.828125 413.03515625 C287.488125 414.02515625 288.148125 415.01515625 288.828125 416.03515625 C290.77618649 418.95724849 292.28507545 421.88476341 293.828125 425.03515625 C296.57627887 429.92142122 299.42947542 434.73705029 302.328125 439.53515625 C305.91421334 445.47117279 309.37181558 451.46707184 312.79296875 457.5 C315.30015198 461.88848925 317.93071114 466.20183768 320.56054688 470.51757812 C322.83541976 474.28061317 324.90041305 478.07827382 326.828125 482.03515625 C329.01004185 486.02279738 331.31976411 489.78704471 333.890625 493.53515625 C336.39105845 497.23280473 338.09330335 500.91495484 339.828125 505.03515625 C341.14903065 507.37898547 342.54779763 509.66674056 343.953125 511.9609375 C346.30497938 515.81699874 348.60055736 519.70466804 350.890625 523.59765625 C351.32656982 524.33854492 351.76251465 525.07943359 352.21166992 525.84277344 C354.76370511 530.19108049 357.28211519 534.55310675 359.6953125 538.98046875 C362.93586005 544.85815155 366.35004251 550.63328766 369.765625 556.41015625 C372.86002689 561.65122184 375.89493708 566.91188963 378.8125 572.25390625 C379.78300891 573.95602957 380.86626483 575.592366 381.953125 577.22265625 C383.85132152 580.06995103 385.29931424 582.97753472 386.828125 586.03515625 C387.7871875 587.45828125 387.7871875 587.45828125 388.765625 588.91015625 C390.60451875 591.69635889 392.04230879 594.49383833 393.4921875 597.4921875 C395.66579368 601.62966594 398.12559727 605.59605311 400.56713867 609.57983398 C402.84834599 613.32093581 404.88482429 617.10349278 406.828125 621.03515625 C407.488125 622.02515625 408.148125 623.01515625 408.828125 624.03515625 C410.77296817 626.95242101 412.26230437 629.90351498 413.828125 633.03515625 C414.42625 633.92203125 415.024375 634.80890625 415.640625 635.72265625 C417.50944548 638.5525844 419.10963217 641.36037726 420.703125 644.34765625 C422.64382419 647.96865702 424.68522415 651.4023163 427.015625 654.78515625 C428.80910356 657.39385234 430.28071333 659.84462103 431.453125 662.78515625 C432.6686202 666.06731076 432.6686202 666.06731076 434.828125 668.53515625 C437.19973059 671.49966323 438.33682976 674.55546736 439.828125 678.03515625 C440.77365234 679.20304688 440.77365234 679.20304688 441.73828125 680.39453125 C455.3715804 697.62090551 457.15762703 723.11068402 455.828125 744.03515625 C455.10016604 749.22364805 453.57505156 754.10451933 451.828125 759.03515625 C451.55484375 759.94652344 451.2815625 760.85789062 451 761.796875 C449.77638294 765.83871647 448.48176372 768.71810785 445.828125 772.03515625 C445.1165625 773.73671875 445.1165625 773.73671875 444.390625 775.47265625 C442.84848061 778.98874546 441.34590418 781.16768552 438.828125 784.03515625 C438.3228125 784.63070312 437.8175 785.22625 437.296875 785.83984375 C428.37698516 796.25989688 419.36481456 804.26957103 407.328125 810.84765625 C406.61599854 811.24525146 405.90387207 811.64284668 405.17016602 812.05249023 C400.31372376 814.63064292 396.34258543 815.80024846 390.828125 816.03515625 C385.16129331 813.70175497 383.37201588 809.81107521 381.00390625 804.47265625 C379.83722756 802.05402668 378.45975427 800.15671173 376.828125 798.03515625 C375.94687543 796.23876289 375.06709448 794.44163196 374.1953125 792.640625 C372.38121433 789.1834722 370.3573522 785.86935534 368.328125 782.53515625 C365.89284446 778.53377574 363.49614945 774.56832304 361.453125 770.34765625 C360.01357639 767.1530264 360.01357639 767.1530264 358.328125 765.03515625 C356.45079801 762.53205359 355.21568142 759.86194327 353.890625 757.03515625 C352.86522333 754.98065145 352.86522333 754.98065145 351.375 753.09765625 C349.68046923 750.83828188 348.39995397 748.53029408 347.078125 746.03515625 C343.80647209 739.94760308 340.32759554 733.9937142 336.828125 728.03515625 C334.41487273 723.88974381 332.10384155 719.69493333 329.828125 715.47265625 C328.24903066 712.56317492 326.66568533 709.79149675 324.828125 707.03515625 C322.46319275 703.48775788 320.49191214 699.79520628 318.47265625 696.04296875 C316.24330157 691.9655267 313.89555629 687.96196435 311.5390625 683.95703125 C310.0170182 681.35774099 308.52067491 678.7450871 307.02880859 676.12841797 C304.36179681 671.47877196 301.65380158 666.8527971 298.953125 662.22265625 C298.05400391 660.67868164 298.05400391 660.67868164 297.13671875 659.10351562 C294.31258224 654.26082601 291.47288518 649.42976431 288.578125 644.62890625 C286.53884006 641.24174009 284.57129965 637.83313638 282.703125 634.34765625 C278.96392986 627.38683817 274.97886683 620.5823149 270.953125 613.78515625 C267.53287271 608.00008331 264.21093161 602.18395569 261.08203125 596.234375 C259.8172469 594.01607722 258.36232596 592.07244207 256.828125 590.03515625 C255.94405922 588.23302216 255.06105805 586.43035758 254.18359375 584.625 C251.36679435 579.2430461 248.10297234 574.10137351 244.95654297 568.90722656 C241.35740167 562.93617172 237.85936174 556.90678985 234.48046875 550.80859375 C231.73898055 545.8619731 228.94691867 540.94524946 226.140625 536.03515625 C225.62242187 535.12813965 225.10421875 534.22112305 224.5703125 533.28662109 C220.0754296 525.43568718 215.49867082 517.63503136 210.88989258 509.85058594 C209.82186883 508.02445934 208.78281224 506.18388549 207.74609375 504.33984375 C200.1235027 491.2060107 190.03241984 483.99750076 175.828125 479.03515625 C158.24574717 475.09387156 142.85179319 478.95515825 127.828125 488.03515625 C122.52603586 491.39979026 119.0210425 494.53012608 115.828125 500.03515625 C115.44140625 500.59589844 115.0546875 501.15664063 114.65625 501.734375 C106.50018526 513.74191476 103.16898287 527.6654053 104.828125 542.03515625 C107.22387939 553.84609004 113.39347412 564.04206261 119.67675781 574.14599609 C121.28559818 576.785777 122.74899678 579.49524316 124.203125 582.22265625 C126.2190337 585.98190008 128.44180838 589.49682471 130.828125 593.03515625 C131.84503764 595.02661016 132.84455148 597.02702699 133.828125 599.03515625 C136.57627887 603.92142122 139.42947542 608.73705029 142.328125 613.53515625 C145.22692398 618.33350951 148.06125989 623.15936424 150.828125 628.03515625 C151.4675 629.14890625 152.106875 630.26265625 152.765625 631.41015625 C154.3195104 634.12183862 155.82674085 636.85659711 157.328125 639.59765625 C158.78476772 642.23391147 160.2786576 644.71095516 161.953125 647.22265625 C163.8544403 650.07462919 165.32158085 652.95929527 166.828125 656.03515625 C169.01004185 660.02279738 171.31976411 663.78704471 173.890625 667.53515625 C176.38989713 671.22783082 178.10531748 674.91539915 179.828125 679.03515625 C181.02856029 681.08896221 182.29825193 683.08583418 183.5859375 685.0859375 C185.0090586 687.31907406 186.30069842 689.61772568 187.59765625 691.92578125 C189.28147655 694.81233033 191.06055061 697.63669586 192.828125 700.47265625 C195.39596919 704.60572967 197.81636495 708.74656543 199.90063477 713.14648438 C201.06828388 715.52419786 202.39151987 717.80506161 203.71337891 720.09960938 C205.62614606 723.4207697 207.50729332 726.75974462 209.390625 730.09765625 C209.77669922 730.77892578 210.16277344 731.46019531 210.56054688 732.16210938 C219.60929029 748.20936984 222.94461807 764.50757819 218.203125 782.66015625 C212.9473887 798.20913389 202.44517417 808.48961445 188.48046875 816.4765625 C175.27447116 822.11206308 157.07920916 822.30176602 143.67578125 817.35546875 C138.68425301 815.0411525 134.23542266 812.32418435 129.828125 809.03515625 C128.98507812 808.41125 128.14203125 807.78734375 127.2734375 807.14453125 C120.07893074 801.27237932 115.69576956 794.1414215 111.09570312 786.21728516 C109.81006722 784.00406987 108.50172461 781.80571723 107.1875 779.609375 C102.98983659 772.56881245 98.93609746 765.47280103 95.05859375 758.25 C93.47506831 755.3996542 91.64969415 752.73812982 89.828125 750.03515625 C88.64574001 747.99043033 87.51045469 745.92271597 86.375 743.8515625 C81.47468637 734.92952683 76.52272397 726.03082122 71.21484375 717.34375 C69.77869542 714.95286644 68.40111617 712.53158173 67.02172852 710.10766602 C64.00168911 704.86382995 60.87965395 699.67825855 57.78125 694.48046875 C54.45051594 688.86669632 51.25554565 683.20551704 48.20068359 677.43652344 C46.89067711 675.14459462 45.4145475 673.13964359 43.828125 671.03515625 C43.17866761 669.83396038 42.56214992 668.61434683 41.98046875 667.37890625 C39.66827059 662.63368247 37.04983735 658.09276091 34.390625 653.53515625 C33.92591797 652.73207031 33.46121094 651.92898438 32.98242188 651.1015625 C30.75226644 647.26333124 28.48407651 643.46020933 26.11328125 639.70703125 C24.48501677 637.12397799 22.99556142 634.55632624 21.703125 631.78515625 C20.67901101 629.67138497 19.7422957 627.92071718 18.328125 626.03515625 C16.58738034 623.71416338 15.44785174 621.22617449 14.18359375 618.625 C11.36825202 613.24583121 8.10592318 608.10732477 4.9609375 602.91601562 C1.19486763 596.663041 -2.43524464 590.32875234 -6.05395508 583.98974609 C-8.22913144 580.18663144 -10.41850647 576.39174632 -12.609375 572.59765625 C-13.07408203 571.79005859 -13.53878906 570.98246094 -14.01757812 570.15039062 C-16.61222706 565.65951289 -19.26848658 561.22555015 -22.06616211 556.85791016 C-23.60813621 554.31598509 -24.90322382 551.67502046 -26.1796875 548.9921875 C-27.39495269 546.59514867 -28.77645436 544.33253495 -30.171875 542.03515625 C-30.8833563 540.83312191 -31.59282599 539.62989567 -32.30078125 538.42578125 C-32.69120605 537.76175293 -33.08163086 537.09772461 -33.48388672 536.41357422 C-33.89654785 535.71119629 -34.30920898 535.00881836 -34.734375 534.28515625 C-35.62367528 532.77212211 -36.5129989 531.25910169 -37.40234375 529.74609375 C-37.85786621 528.97104492 -38.31338867 528.19599609 -38.78271484 527.39746094 C-40.1573525 525.05985216 -41.53349689 522.72313739 -42.91015625 520.38671875 C-43.35222412 519.63616211 -43.79429199 518.88560547 -44.24975586 518.11230469 C-45.09007627 516.68567376 -45.93071369 515.25922949 -46.77172852 513.83300781 C-50.23368997 507.95336286 -53.64646483 502.05574468 -56.859375 496.03515625 C-59.66460981 490.86984983 -62.66072297 485.8399468 -65.70263672 480.8125 C-69.64401799 474.28608995 -73.41275514 467.66795019 -77.171875 461.03515625 C-79.90128153 456.22464533 -82.69224957 451.4597647 -85.546875 446.72265625 C-85.9389917 446.06966553 -86.3311084 445.4166748 -86.73510742 444.74389648 C-88.46478797 441.86440573 -90.20011885 438.98884875 -91.94921875 436.12109375 C-94.62126678 431.7288723 -97.06881073 427.32626021 -99.30859375 422.69921875 C-100.17628362 420.91525292 -100.17628362 420.91525292 -101.671875 419.03515625 C-103.41261966 416.71416338 -104.55214826 414.22617449 -105.81640625 411.625 C-108.63320565 406.2430461 -111.89702766 401.10137351 -115.04345703 395.90722656 C-119.12624223 389.13379582 -123.05867687 382.27794116 -126.875 375.3515625 C-128.35686437 372.70473849 -129.88664484 370.08888563 -131.421875 367.47265625 C-134.24950735 362.64904813 -137.00485578 357.78956485 -139.734375 352.91015625 C-142.66819992 347.668669 -145.65285281 342.47019257 -148.78515625 337.34375 C-150.22130458 334.95286644 -151.59888383 332.53158173 -152.97827148 330.10766602 C-155.99831089 324.86382995 -159.12034605 319.67825855 -162.21875 314.48046875 C-165.54948406 308.86669632 -168.74445435 303.20551704 -171.79931641 297.43652344 C-173.10932289 295.14459462 -174.5854525 293.13964359 -176.171875 291.03515625 C-176.82133239 289.83396038 -177.43785008 288.61434683 -178.01953125 287.37890625 C-180.33172941 282.63368247 -182.95016265 278.09276091 -185.609375 273.53515625 C-186.07408203 272.73207031 -186.53878906 271.92898438 -187.01757812 271.1015625 C-189.6231866 266.61715404 -192.29987479 262.20718819 -195.15771484 257.87841797 C-197.09450164 254.358259 -197.7381202 251.00545689 -197.171875 247.03515625 C-195.92895061 244.31678761 -194.46498401 241.94383909 -192.796875 239.46484375 C-191.29993458 237.22662995 -190.12526321 235.03095689 -188.984375 232.59765625 C-187.171875 229.03515625 -187.171875 229.03515625 -185.6484375 227.5546875 C-183.95152867 225.80839773 -183.45718684 224.46776672 -182.734375 222.16015625 C-181.44323921 218.46159018 -179.67551024 216.06986563 -177.171875 213.03515625 C-176.14602093 211.17230827 -175.23034496 209.27183688 -174.30859375 207.35546875 C-172.97271297 204.62861932 -171.5521501 201.95696198 -170.109375 199.28515625 C-169.62339844 198.3828125 -169.13742187 197.48046875 -168.63671875 196.55078125 C-167.2846517 194.22883144 -165.78100248 192.18065956 -164.171875 190.03515625 C-163.47249968 188.71868506 -162.80458367 187.38493474 -162.171875 186.03515625 C-160.74037083 183.08539007 -159.1392623 180.65833932 -157.171875 178.03515625 C-156.14654382 176.0878539 -155.18204718 174.11897544 -154.234375 172.1328125 C-152.99512256 169.68620014 -151.59635387 167.37961105 -150.171875 165.03515625 C-149.37828526 163.69254108 -148.58680609 162.34867725 -147.796875 161.00390625 C-147.36890625 160.27558594 -146.9409375 159.54726563 -146.5 158.796875 C-146.06171875 158.05050781 -145.6234375 157.30414063 -145.171875 156.53515625 C-140.47625867 148.53879786 -140.47625867 148.53879786 -138.44140625 145.171875 C-137.09903681 142.97883085 -137.09903681 142.97883085 -135.859375 140.34765625 C-132.95784683 134.65206391 -129.64058985 129.19503103 -126.046875 123.91015625 C-124.1449225 120.99382908 -122.62784343 118.03997211 -121.109375 114.9140625 C-119.92489073 112.5401586 -118.54513285 110.30401705 -117.171875 108.03515625 C-116.676875 107.00390625 -116.181875 105.97265625 -115.671875 104.91015625 C-114.171875 102.03515625 -114.171875 102.03515625 -112.703125 100.63671875 C-110.88366063 98.73370754 -110.14666058 96.9721202 -109.171875 94.53515625 C-107.87997034 91.30539461 -106.62107353 89.45923479 -104.171875 87.03515625 C-103.32559835 85.52277797 -102.53791599 83.97678654 -101.796875 82.41015625 C-95.90024556 70.26167872 -95.90024556 70.26167872 -92.61328125 66.02734375 C-91.16314571 64.02309138 -90.47165224 62.37978946 -89.734375 60.03515625 C-88.46862039 56.44885152 -86.91334277 54.69354924 -84.171875 52.03515625 C-83.53005532 50.84639458 -82.93014121 49.63462052 -82.359375 48.41015625 C-72.53529612 27.76424047 -53.05382115 12.93208218 -31.88330078 5.19921875 C-21.28509513 1.70920917 -11.16089015 0.12370445 0 0 Z " fill="#F7A213" transform="translate(642.171875,227.96484375)"/>
<path d="M0 0 C4.82930097 2.98280354 6.67836423 6.80195182 9.203125 11.67578125 C11.29124758 15.53880802 13.58781814 19.22993083 15.9375 22.9375 C21.30925607 31.44579828 26.520446 39.97986265 31 49 C32.75721442 52.21079253 34.61688104 55.36146839 36.5 58.5 C37.97702863 60.96171438 39.40052071 63.45071738 40.82275391 65.94433594 C42.08123926 68.14185703 43.34986964 70.33326176 44.62109375 72.5234375 C45.31235352 73.71453125 45.31235352 73.71453125 46.01757812 74.9296875 C46.95981518 76.55235708 47.90251919 78.17475561 48.84570312 79.796875 C51.55803231 84.47252196 54.21920497 89.17219445 56.83569336 93.90209961 C60.08707805 99.76059168 63.47506293 105.53939119 66.875 111.3125 C67.31553711 112.06160645 67.75607422 112.81071289 68.20996094 113.58251953 C70.53305965 117.52803214 72.87490196 121.46048657 75.25 125.375 C77.85409371 129.6857314 80.23735776 134.10185177 82.625 138.53515625 C84.05011643 141.16619202 84.05011643 141.16619202 86.125 144.1875 C88.02825885 147.04238827 89.50716277 149.92699266 91.0078125 153.00390625 C94.71706505 160.46622141 99.28635623 167.53858566 103.61328125 174.65234375 C106.26794896 179.03287484 108.70862753 183.41725507 111 188 C111.66 188.99 112.32 189.98 113 191 C114.94806149 193.92209224 116.45695045 196.84960716 118 200 C119.99716269 203.66146493 122.01881113 207.08865613 124.5 210.4375 C126.73124173 213.48754604 128.40316017 216.62571338 130.03515625 220.02734375 C131.54222279 223.10859315 133.27495413 226.03507742 135 229 C135.60714844 230.06992187 136.21429687 231.13984375 136.83984375 232.2421875 C139.3876404 236.70584699 142.0581401 241.09374244 144.73242188 245.48242188 C147.00729476 249.24545692 149.07228805 253.04311757 151 257 C153.18191685 260.98764113 155.49163911 264.75188846 158.0625 268.5 C160.56293345 272.19764848 162.26517835 275.87979859 164 280 C165.89019906 283.39973303 167.95382326 286.69242515 170 290 C171.38697039 292.24369052 172.77226063 294.48837346 174.15429688 296.73510742 C175.11319684 298.29331986 176.07528748 299.84957466 177.04101562 301.40356445 C179.59368257 305.54801713 181.91704691 309.71928856 184.04956055 314.09399414 C186.8118697 319.63351315 190.11444908 324.89214868 193.3125 330.1875 C198.41504044 338.6703552 203.48916001 347.15957931 208.1875 355.875 C209.69905793 358.67876048 211.20519473 361.30137977 213 363.9375 C223.28702336 379.68950452 225.80734533 395.11789522 223.56640625 413.5703125 C221.99507575 421.04633214 218.46605925 426.87540421 214 433 C212.8553125 434.5778125 212.8553125 434.5778125 211.6875 436.1875 C201.32828624 447.02853766 189.1540337 454.63757509 173.984375 455.3359375 C154.87144514 455.67030081 140.3406038 450.8958555 126.1875 437.875 C120.67149015 431.99193589 116.90605982 424.9987713 113 418 C112.18036168 416.55039985 111.36004053 415.10118559 110.5390625 413.65234375 C108.99813892 410.92715773 107.46751105 408.19661984 105.9453125 405.4609375 C104.34216714 402.6087552 102.69443699 399.79824166 101 397 C100.01224821 395.28596013 99.03699006 393.56534911 98.0625 391.84375 C96.73754399 389.54456164 95.36670509 387.27465602 94 385 C88.98311698 376.57127381 83.97573613 368.14478232 79.3515625 359.4921875 C76.16813818 353.62217387 72.76635473 347.87638078 69.375 342.125 C68.73183838 341.03276123 68.73183838 341.03276123 68.07568359 339.91845703 C66.71755 337.61205251 65.35884854 335.30598337 64 333 C62.20781463 329.95863848 60.4162287 326.91692503 58.625 323.875 C58.22071777 323.18937988 57.81643555 322.50375977 57.39990234 321.79736328 C53.93793889 315.91793221 50.52532304 310.02042515 47.3125 304 C44.56990052 298.95361696 41.65494524 294.0236207 38.66699219 289.12011719 C36.4807624 285.51852476 34.36736408 281.89023405 32.328125 278.203125 C22.57739973 260.66116692 12.31370444 247.9613865 -7.64453125 242.2421875 C-23.00082789 238.80818101 -38.56315736 242.41438472 -51.8125 250.8125 C-64.36328696 259.85273777 -73.08291554 272.70292185 -76 288 C-78.31771663 305.24829763 -73.3342944 319.69160072 -63.953125 333.99609375 C-62.05733294 336.91182194 -60.38516357 339.86950371 -58.75 342.9375 C-57.21779344 345.80314038 -55.68087072 348.47869393 -53.875 351.1875 C-52.04138385 353.93792422 -50.62616031 356.76562417 -49.1640625 359.72387695 C-47.1129901 363.73439457 -44.83203839 367.6102547 -42.5625 371.5 C-42.09779297 372.30308594 -41.63308594 373.10617187 -41.15429688 373.93359375 C-38.53705559 378.43802297 -35.85211168 382.88633161 -33.05078125 387.27880859 C-31.53187442 389.76679492 -30.30304431 392.39391138 -29 395 C-28.01 396.485 -28.01 396.485 -27 398 C-25.05193851 400.92209224 -23.54304955 403.84960716 -22 407 C-19.08913154 412.16567685 -16.08005374 417.27115126 -13.0625 422.375 C-9.99425935 427.5732959 -6.96417648 432.7810228 -4.08984375 438.08984375 C-2.55006367 440.78859809 -0.80073778 443.34072152 0.984375 445.8828125 C2.39742748 448.82848343 2.58247995 451.77893087 3 455 C-15.57496824 455.97341573 -34.12777354 456.24972964 -52.72387695 456.29516602 C-55.93728748 456.30399741 -59.1502617 456.32485876 -62.36352539 456.35668945 C-100.65253581 456.72674441 -142.42978223 456.37376282 -171.79101562 428.359375 C-179.11393549 421.12169547 -184.64744803 413.34992644 -189 404 C-189.47566406 403.29488281 -189.95132813 402.58976562 -190.44140625 401.86328125 C-192.58335116 397.92832982 -193.54526729 393.89142837 -194.625 389.5625 C-194.94984375 388.31243164 -194.94984375 388.31243164 -195.28125 387.03710938 C-198.65932325 373.8480271 -199.93761125 359.2326455 -196 346 C-195.72542969 345.04988037 -195.72542969 345.04988037 -195.4453125 344.08056641 C-191.0385095 329.07499415 -184.18580841 316.2808101 -176 303 C-174.42966402 300.42154709 -172.95156502 297.90092845 -171.625 295.1875 C-169.28489493 290.59729391 -166.49460073 286.32092077 -163.70703125 281.9921875 C-161.18221816 278.03017311 -158.95373548 274.03495502 -156.90234375 269.80859375 C-155.73000149 267.45883416 -154.35924489 265.24570894 -153 263 C-152.505 261.96875 -152.01 260.9375 -151.5 259.875 C-150 257 -150 257 -148.5234375 255.58203125 C-146.76672516 253.75775305 -146.06268187 252.15670467 -145.125 249.8125 C-143.16885365 245.21592798 -140.73441068 241.16790477 -138 237 C-134.98902166 232.33754567 -132.24978786 227.69529151 -129.89453125 222.6640625 C-129 221 -129 221 -127 219 C-126.49765114 217.72480674 -126.04361097 216.43008125 -125.625 215.125 C-124.31845436 211.46667221 -122.75229142 209.75229142 -120 207 C-118.68949944 204.60922195 -117.52493166 202.16598876 -116.34765625 199.70703125 C-114.60587443 196.20832167 -112.58802502 192.91986427 -110.546875 189.58984375 C-108.3684056 185.94255787 -106.38119975 182.19973286 -104.39453125 178.4453125 C-103 176 -103 176 -101.4140625 173.89453125 C-99.7805658 171.86585118 -99.7805658 171.86585118 -98.5625 168.5625 C-97.04450332 165.10146758 -95.34868852 162.91806756 -93 160 C-92.04756167 158.12796604 -91.09926965 156.25342726 -90.19140625 154.359375 C-88.24433223 150.50353005 -86.00061645 146.82346863 -83.8046875 143.10546875 C-81.56102234 139.24461637 -79.44959984 135.32059297 -77.359375 131.375 C-76 129 -76 129 -74.41796875 126.90234375 C-72.78144228 124.86693182 -72.78144228 124.86693182 -71.5625 121.5625 C-70.04450332 118.10146758 -68.34868852 115.91806756 -66 113 C-64.97869001 111.10267098 -64.05643793 109.1694838 -63.125 107.2265625 C-61.45830429 103.92789391 -59.5090493 100.81559076 -57.58203125 97.6640625 C-55.38413384 93.9629118 -53.38704065 90.16251585 -51.39453125 86.34765625 C-50 84 -50 84 -48.4453125 82.453125 C-46.67887572 80.67713991 -45.99480249 79.00425168 -45.0625 76.6875 C-43.41154304 72.793258 -41.40453634 69.49045597 -39 66 C-37.99778578 64.00110865 -36.99803295 62.00098232 -36 60 C-34.91178524 58.09496544 -33.80717453 56.19921593 -32.6875 54.3125 C-29.77179195 49.36874132 -27.01820061 44.36346802 -24.359375 39.27734375 C-23 37 -23 37 -21.41796875 35.43359375 C-19.74306607 33.74023484 -19.27001125 32.38376262 -18.5625 30.125 C-17.26465002 26.41973918 -15.51924222 24.03790974 -13 21 C-10.64507242 17.09368432 -8.54936144 13.03903918 -6.41796875 9.0078125 C-5.88816406 8.01523437 -5.35835937 7.02265625 -4.8125 6 C-4.32394531 5.071875 -3.83539063 4.14375 -3.33203125 3.1875 C-2 1 -2 1 0 0 Z " fill="#F7A213" transform="translate(378,593)"/>
<path d="M0 0 C0.33 0.66 0.66 1.32 1 2 C0.0625 4.625 0.0625 4.625 -1 7 C-1.66 6.67 -2.32 6.34 -3 6 C-2.42655063 3.13275314 -2.1385485 2.1385485 0 0 Z " fill="#F7A213" transform="translate(1262,1139)"/>
<path d="M0 0 C0.66 0.66 1.32 1.32 2 2 C1.01 1.67 0.02 1.34 -1 1 C-0.67 0.67 -0.34 0.34 0 0 Z " fill="#F7A213" transform="translate(136,1260)"/>
<path d="M0 0 C2 1 2 1 2 1 Z " fill="#F7A213" transform="translate(1142,1261)"/>
<path d="M0 0 C2 1 2 1 2 1 Z " fill="#F7A213" transform="translate(1255,1153)"/>
<path d="" fill="#F7A213" transform="translate(0,0)"/>
<path d="" fill="#F7A213" transform="translate(0,0)"/>
<path d="" fill="#FBFDFD" transform="translate(0,0)"/>
<path d="" fill="#FBFDFD" transform="translate(0,0)"/>
<path d="" fill="#FBFDFD" transform="translate(0,0)"/>
</svg>
