<svg width="34" height="52" viewBox="0 0 34 52" fill="none" xmlns="http://www.w3.org/2000/svg">
<path d="M33.5821 21.216H17.4826V26.96H26.7514C25.8682 28.8314 24.7066 30.2058 23.2666 31.0832C21.8266 31.9606 20.0569 32.3996 17.9575 32.4C14.7291 32.4 12.015 31.3277 9.81508 29.183C7.61519 27.0384 6.51524 24.4226 6.51524 21.3357C6.51524 21.2813 6.51524 21.2269 6.51524 21.1725H0.379883C0.379883 21.2045 0.379883 21.2365 0.379883 21.2704C0.379883 24.3586 1.13722 27.2362 2.65188 29.903C4.16655 32.5699 6.22521 34.6246 8.82788 36.0672C11.4295 37.5091 14.3901 38.2303 17.7098 38.2307C20.8121 38.2307 23.5157 37.5716 25.8205 36.2534C28.1254 34.9353 30.0027 33.0232 31.4525 30.5171C32.9021 28.0105 33.6275 25.3589 33.6285 22.5626L33.5821 21.216Z" fill="black"/>
<path d="M7.65532 5.53693H0.375V19.8774H7.65532V5.53693Z" fill="#FAC31D"/>
<path d="M24.9532 8.94354H17.6729V19.8776H24.9532V8.94354Z" fill="#FAC31D"/>
<path d="M33.6211 3.82904H26.3408V19.8774H33.6211V3.82904Z" fill="#4B4B4B"/>
<path d="M16.2901 0.219055H9.00977V19.8773H16.2901V0.219055Z" fill="#4B4B4B"/>
<path d="M12.5436 41.7267L11.6345 42.5878C10.9809 41.9451 10.2646 41.4574 9.48572 41.1248C8.70684 40.7922 7.94801 40.6261 7.20924 40.6266C6.28956 40.6266 5.41383 40.8525 4.58204 41.3043C3.75025 41.7562 3.10577 42.3688 2.6486 43.1421C2.19143 43.9154 1.96284 44.7326 1.96284 45.5936C1.96284 46.4762 2.19943 47.3147 2.6726 48.1091C3.14577 48.9036 3.79953 49.5282 4.63388 49.983C5.46844 50.4374 6.38268 50.6646 7.3766 50.6646C8.58343 50.6646 9.60401 50.3245 10.4384 49.6442C11.2727 48.9638 11.767 48.0815 11.9212 46.9971H8.18236V45.865H13.2384C13.2277 47.6783 12.6896 49.1174 11.624 50.1824C10.5584 51.2474 9.13255 51.7807 7.34652 51.7824C5.17756 51.7824 3.46023 51.0436 2.19452 49.5661C1.22172 48.4284 0.73532 47.1128 0.73532 45.6192C0.729808 44.5288 1.01904 43.4573 1.57244 42.5178C2.11772 41.573 2.91206 40.7961 3.86876 40.272C4.84156 39.7325 5.94183 39.4627 7.16956 39.4627C8.16348 39.4627 9.09905 39.6421 9.97628 40.001C10.8535 40.3598 11.7093 40.935 12.5436 41.7267Z" fill="black"/>
<path d="M19.3902 42.5877C20.7267 42.5877 21.8343 43.0715 22.713 44.0389C23.5118 44.9211 23.9111 45.9655 23.9111 47.1724C23.9111 48.3841 23.4891 49.4432 22.6452 50.3496C21.8013 51.2561 20.7162 51.7092 19.3902 51.709C18.059 51.709 16.971 51.2559 16.1262 50.3496C15.2814 49.4434 14.8594 48.3843 14.8602 47.1724C14.8602 45.9711 15.2596 44.9293 16.0583 44.0469C16.9379 43.0741 18.0485 42.5877 19.3902 42.5877ZM19.3863 43.6802C18.4583 43.6802 17.6609 44.023 16.994 44.7087C16.3271 45.3943 15.9937 46.2236 15.9937 47.1964C15.9903 47.8108 16.1476 48.4154 16.45 48.9503C16.7365 49.4748 17.163 49.9095 17.682 50.206C18.2032 50.4962 18.7898 50.6485 19.3863 50.6485C19.9828 50.6485 20.5695 50.4962 21.0906 50.206C21.6082 49.9109 22.0189 49.4924 22.3226 48.9503C22.6249 48.4154 22.7822 47.8108 22.779 47.1964C22.779 46.2236 22.4441 45.3943 21.7745 44.7087C21.1048 44.023 20.3088 43.6802 19.3863 43.6802Z" fill="#FAC31D"/>
<path d="M30.3403 43.7599L29.6229 44.5013C29.0255 43.9221 28.4419 43.6324 27.8721 43.6322C27.5268 43.6256 27.1926 43.7543 26.9409 43.9909C26.6824 44.2303 26.5531 44.5094 26.5531 44.8284C26.5531 45.11 26.6598 45.3783 26.8731 45.6335C27.0864 45.894 27.5338 46.1996 28.2152 46.5503C29.0472 46.981 29.6119 47.3956 29.9093 47.7941C30.1992 48.1892 30.3534 48.6676 30.3486 49.1576C30.3486 49.87 30.0984 50.4733 29.5979 50.9676C29.0974 51.4619 28.4721 51.709 27.7221 51.709C27.2257 51.7099 26.7356 51.5981 26.2888 51.382C25.8465 51.1748 25.4594 50.8661 25.1589 50.4812L25.8603 49.6837C26.4305 50.3269 27.0352 50.6485 27.6744 50.6485C28.1224 50.6485 28.5034 50.5051 28.8174 50.2181C29.1314 49.9312 29.2886 49.5936 29.2888 49.2053C29.291 48.8927 29.1803 48.5898 28.9771 48.3522C28.7693 48.1082 28.3006 47.7999 27.571 47.4274C26.7881 47.0236 26.2554 46.625 25.9729 46.2316C25.6905 45.8382 25.5494 45.389 25.5496 44.884C25.5496 44.2248 25.7744 43.6773 26.2241 43.2415C26.6738 42.8056 27.2423 42.5877 27.9294 42.5877C28.7273 42.5877 29.5309 42.9784 30.3403 43.7599Z" fill="black"/>
<path d="M32.7021 39.2393C32.9434 39.2438 33.1732 39.3428 33.3422 39.515C33.5112 39.6872 33.6059 39.9188 33.6059 40.1601C33.6059 40.4014 33.5112 40.633 33.3422 40.8052C33.1732 40.9774 32.9434 41.0764 32.7021 41.0809C32.4602 41.0782 32.2289 40.9807 32.0582 40.8092C31.8874 40.6377 31.7908 40.4061 31.7892 40.1641C31.7872 40.0425 31.8102 39.9218 31.8566 39.8094C31.9029 39.697 31.9718 39.5952 32.0589 39.5104C32.1418 39.4235 32.2417 39.3546 32.3524 39.308C32.463 39.2613 32.5821 39.238 32.7021 39.2393ZM32.1479 42.8112H33.2641V51.4857H32.1479V42.8112Z" fill="black"/>
</svg>
